<svg xmlns="http://www.w3.org/2000/svg" xmlns:xlink="http://www.w3.org/1999/xlink" width="20" height="10.968" viewBox="0 0 20 10.968"><defs><style>.a{fill:#fff;}.b{clip-path:url(#a);}</style><clipPath id="a"><rect class="a" width="20" height="10.968" transform="translate(0.287 -0.358)"/></clipPath></defs><g class="b" transform="translate(-0.287 0.358)"><g transform="translate(4.918 -0.243)"><g transform="translate(0 0)"><path class="a" d="M4.235,7.516l.835.835L8.053,5.368,5.07,2.386l-.835.835L5.786,4.772H0V5.965H5.786ZM9.544,0H1.193A1.2,1.2,0,0,0,0,1.193V3.579H1.193V1.193H9.544V9.544H1.193V7.158H0V9.544a1.2,1.2,0,0,0,1.193,1.193H9.544a1.2,1.2,0,0,0,1.193-1.193V1.193A1.2,1.2,0,0,0,9.544,0Z" transform="translate(0 0)"/></g></g></g></svg>