<svg xmlns="http://www.w3.org/2000/svg" width="15" height="13.06" viewBox="0 0 15 13.06"><defs><style>.a{fill:#fff;}</style></defs><g transform="translate(-40 -19.401)"><path class="a" d="M.265,25.663l3.456,1.29,1.338,4.3a.407.407,0,0,0,.646.195l1.927-1.571a.575.575,0,0,1,.7-.02l3.475,2.523a.407.407,0,0,0,.638-.246l2.546-12.245a.407.407,0,0,0-.546-.463L.261,24.9A.408.408,0,0,0,.265,25.663Zm4.579.6,6.755-4.16a.118.118,0,0,1,.142.186L6.166,27.474a1.156,1.156,0,0,0-.358.691l-.19,1.407a.175.175,0,0,1-.341.025l-.73-2.566A.68.68,0,0,1,4.844,26.266Z" transform="translate(40)"/></g></svg>